<svg xmlns="http://www.w3.org/2000/svg" viewBox="0 0 520 520">
  <style>
    :root { color-scheme: light dark; }
    .mark { fill: #111111; }
    @media (prefers-color-scheme: dark) {
      .mark { fill: #f6efe4; }
    }
  </style>
  <g transform="translate(50.6493,3.6580683)" class="mark">
    <path d="m 176.18598,495.89077 c -22.76111,-12.60485 -45.14404,-25.13842 -67.66644,-37.41613 -5.9906,-3.26569 -10.872589,-7.43531 -14.959469,-12.87885 -15.50403,-20.65063 -30.53992,-41.70294 -47.0123,-61.55853 C 35.521191,370.746 29.681711,355.67239 24.877731,339.63369 17.333841,314.44741 9.3439111,289.3945 1.4901211,264.3016 0.43061107,260.91653 0.00581107,257.514 0.01222107,253.97921 c 0.0467,-25.82904 0.0782,-51.65835 -0.0119999955,-77.48712 C -0.01687893,171.60015 0.94898107,167.04345 2.2545311,162.32937 7.9571311,141.73877 18.284131,123.9198 31.857831,107.46432 48.172311,87.68618 63.671361,67.21771 79.044381,46.6893 85.305151,38.32891 92.628491,32.72439 102.80204,29.80969 137.18919,19.95767 171.44123,9.63482 206.00919,0.41397001 c 2.68815,-0.71704 5.21183,-0.45636 7.82077,0.42636 C 245.05952,11.40649 275.88777,23.08618 306.9062,34.2377 c 11.41546,4.104 19.31146,12.13611 26.43658,21.28592 21.69776,27.86371 43.30689,55.7965 65.02661,83.64309 2.96308,3.79901 3.29895,8.33786 4.08271,12.6789 5.43152,30.08713 10.67437,60.20834 15.96557,90.32077 0.67926,3.86557 0.0764,7.60342 -1.14416,11.30276 -11.9903,36.34284 -23.99256,72.68176 -35.87146,109.06098 -1.20539,3.69152 -2.70533,4.85833 -6.41449,2.98449 -15.01294,-7.58477 -30.13605,-14.95172 -45.12586,-22.58111 -2.15234,-1.09552 -3.90301,-3.08124 -5.66247,-4.83277 -31.76471,-31.62274 -63.50037,-63.27484 -95.25305,-94.90966 -1.27832,-1.27356 -2.66425,-2.439 -4.29432,-3.92261 -1.73596,2.40976 -1.05053,4.79187 -0.88616,6.90408 1.83154,23.54673 3.85852,47.07828 5.68292,70.62552 1.51611,19.56891 2.81994,39.15418 4.24987,58.72986 0.24207,3.31451 0.40082,6.66351 1.01697,9.9173 2.63678,13.9234 -3.20807,26.53839 -6.20318,39.51477 -6.28479,27.22986 -13.19861,54.31463 -19.87934,81.45282 -0.46328,1.88189 -1.13418,3.71271 -1.92648,6.27105 -10.47845,-5.76971 -20.33652,-11.19781 -30.52048,-16.79309 M 77.548231,345.02243 c 2.45309,3.23486 3.52514,7.51171 7.40085,10.0697 0.62658,-0.82727 1.28372,-1.39612 1.5661,-2.11267 4.08868,-10.37573 8.07882,-20.79047 12.20822,-31.14984 1.17346,-2.94385 0.2789,-4.84003 -1.89951,-6.97882 -13.07855,-12.84113 -26.0011,-25.84101 -38.99316,-38.77033 -1.66919,-1.66107 -3.18421,-3.32617 -3.72708,-5.76251 -4.0907,-18.3577 -9.36887,-36.40799 -14.21518,-54.57007 -1.40406,-5.2619 -0.43939,-6.6904 4.63415,-8.42474 5.2732,-1.80258 5.96012,1.88317 6.87339,5.28976 4.4338,16.5387 8.84838,33.08301 13.13912,49.65915 0.78064,3.01587 2.06788,5.52179 4.27759,7.71551 9.57495,9.5058 19.02805,19.13471 28.64206,28.60041 2.15515,2.12189 3.727019,5.05475 7.525729,6.40863 29.11572,-73.80127 58.09634,-147.2601 87.14807,-220.89911 -3.06595,-0.68826 -4.67835,0.74268 -6.39111,1.59747 -27.42463,13.68668 -54.82169,27.42865 -82.2284,41.15134 -28.890349,14.46558 -57.789149,28.91424 -86.665159,43.40826 -1.85748,0.93235 -4.35766,1.52942 -4.27575,4.30704 0.23501,7.96817 -1.04514,16.04706 0.88204,23.88867 5.24027,21.32202 11.39667,42.39536 17.81012,63.39148 2.27948,7.46253 3.79724,15.21991 8.01221,21.96955 12.61862,20.20666 25.26718,40.39453 38.2757,61.21112 m 144.516229,33.63415 c -1.01526,-12.59448 -2.08496,-25.18487 -3.03174,-37.78448 -1.15869,-15.42047 -2.1557,-30.85309 -3.32934,-46.2724 -1.48902,-19.56232 -3.09607,-39.1156 -4.63214,-58.67438 -1.43213,-18.23495 -2.84656,-36.47131 -4.25327,-54.70828 -1.62393,-21.05228 -3.0975,-42.11756 -4.92996,-63.15158 -0.52039,-5.97296 -0.21573,-12.11252 -1.92416,-18.3483 -2.23981,1.6774 -2.55491,3.72995 -3.26273,5.51511 -12.32822,31.09121 -24.68372,62.17187 -36.90338,93.30578 -14.28656,36.40009 -28.38413,72.87445 -42.73929,109.24732 -1.91394,4.84948 -1.33423,7.52935 3.3819,10.52777 25.56854,16.2561 50.86807,32.93518 76.27371,49.44781 8.31094,5.40173 16.66223,10.7414 25.60718,16.50385 -0.10578,-2.23493 -0.16718,-3.53186 -0.25678,-5.60822 M 323.9051,307.69833 c 2.43713,5.12048 4.87433,10.24097 7.76849,16.32159 2.38129,-3.66412 4.00495,-5.96228 5.42548,-8.37976 11.73065,-19.96264 23.42425,-39.94702 35.12787,-59.92553 4.36841,-7.45713 4.85174,-5.83512 -1.61951,-12.28006 -43.44494,-43.26841 -86.90051,-86.52622 -130.37793,-129.76203 -3.8034,-3.78219 -7.78888,-7.38119 -11.68976,-11.06527 -0.35302,0.27523 -0.70599,0.55047 -1.05896,0.82574 32.04322,67.85718 64.08637,135.71439 96.42432,204.26532 m 51.12726,-166.13635 c -4.51697,-2.49796 -8.98773,-5.08402 -13.55939,-7.4776 -14.58362,-7.63553 -28.2641,-17.19782 -43.97327,-22.43662 -22.87872,-7.62967 -46.00665,-14.5126 -69.03314,-21.69848 -6.69659,-2.08979 -13.40961,-4.12687 -20.11511,-6.18808 -0.16394,0.3016 -0.32788,0.60324 -0.49182,0.90484 49.9162,49.64179 99.83233,99.28357 149.98382,149.15946 1.76276,-2.83722 1.94886,-4.81162 2.16321,-6.79725 2.26453,-20.98059 4.40674,-41.97573 6.87366,-62.93264 1.75354,-14.89633 1.95203,-14.87296 -11.84796,-22.53363 m -191.7208,231.69195 c -19.53515,-12.69378 -39.07031,-25.38757 -58.6055,-38.08136 -0.35605,0.3844 -0.71209,0.7688 -1.06814,1.15326 25.55929,49.44928 51.11859,98.89856 76.66482,148.32257 1.46082,-0.6723 1.57401,-1.52246 1.77457,-2.32696 6.63834,-26.62354 13.26077,-53.25104 19.94424,-79.86328 0.67176,-2.67475 -0.1101,-4.2544 -2.45178,-5.74054 -11.95166,-7.58533 -23.79876,-15.33539 -36.25821,-23.46369 M 58.466071,136.28277 C 100.34232,115.15823 142.21858,94.03372 184.53373,72.6878 c -1.10117,-0.78213 -1.45178,-1.19668 -1.88299,-1.31354 -15.08875,-4.08889 -30.18369,-8.15506 -45.2818,-12.20916 -2.36887,-0.63611 -4.12073,0.56784 -5.89667,1.94076 -7.11408,5.49963 -14.25897,10.96008 -21.43692,16.37613 -14.111209,10.64746 -27.934689,21.50656 -38.253969,36.25085 -5.43011,7.75858 -11.88736,14.79471 -17.80536,22.21723 -2.24002,2.80948 -4.4779,3.67944 -7.49237,1.05981 -2.68811,-2.3359 -4.27173,-4.73871 -1.70889,-8.09399 2.52704,-3.30841 5.0968,-6.58441 7.60336,-9.9082 14.6763,-19.46106 29.94843,-38.27161 51.075839,-51.38968 5.71853,-3.55063 10.73623,-8.23008 16.62686,-12.82105 -6.55673,-2.86477 -12.93002,-3.59179 -18.68329,-5.97348 -5.355289,-2.21686 -8.334559,-0.53674 -11.632629,3.7862 -18.9924,24.89425 -38.15924,49.65753 -57.48334,74.29547 -6.73224,8.58349 -12.12744,17.64901 -14.47637,29.37869 13.7958,-6.78125 26.89538,-13.22025 40.66088,-20.00107 M 212.93861,32.67254 c -0.72553,8.94571 -1.28913,17.90875 -2.24408,26.8299 -0.48706,4.55023 0.78998,6.77188 5.48682,8.19717 30.55767,9.27268 61.00152,18.91995 91.5133,28.34543 2.56592,0.79266 5.15875,2.14569 8.0791,1.59436 0.0525,-0.78967 0.21759,-1.31369 0.0982,-1.76187 -4.02271,-15.09738 -8.18824,-30.15817 -12.03827,-45.29919 -0.98017,-3.85477 -2.99939,-5.75342 -6.65961,-7.05436 -20.84247,-7.40802 -41.58679,-15.09137 -62.40234,-22.57599 -6.469,-2.32605 -12.78815,-5.21725 -19.64368,-6.42913 -2.14099,5.90692 -0.94244,11.70266 -2.18945,18.15368 m 26.59448,124.23392 c -8.66669,-18.20975 -17.33331,-36.41946 -26,-54.62921 -0.81024,1.49231 -0.91895,2.66189 -0.79395,3.80597 1.95173,17.86334 2.70508,35.81515 4.03925,53.72387 1.30994,17.58426 3.16779,35.12967 4.31543,52.72278 0.36005,5.51892 2.84582,9.18985 6.56665,12.74372 25.78369,24.62646 50.80219,50.02728 75.96204,75.28472 1.41644,1.42194 2.94574,2.73157 4.42248,4.09351 0.22955,-0.22107 0.45911,-0.44208 0.6886,-0.66309 -22.95416,-48.80236 -45.90832,-97.60476 -69.2005,-147.08227 M 149.68318,48.71597 c -0.32276,0.80316 0.0826,1.32834 0.77783,1.51102 14.96591,3.93173 29.94,7.8323 44.90832,11.75482 2.80945,0.73626 3.47299,-0.75513 3.65659,-3.16352 0.93536,-12.27072 1.98501,-24.53283 2.88861,-36.80575 0.11069,-1.50348 0.81058,-3.358 -1.43521,-4.77008 -16.9046,9.96585 -33.89978,20.09915 -50.79614,31.47351 m 183.14349,56.0058 c 12.04767,6.5993 24.0954,13.19864 36.14307,19.79797 0.35192,-0.49805 0.70385,-0.99609 1.05578,-1.49417 C 353.2519,101.57513 337.53828,79.29058 319.1388,58.9913 c 0.81806,5.90393 2.05579,11.52939 3.64246,17.05462 2.73981,9.54065 4.34979,19.47364 10.04541,28.67585 M 152.79286,27.84368 c -13.07889,3.78419 -26.15778,7.56833 -39.23667,11.35248 5.76996,2.55069 11.35422,4.11963 16.92121,5.74759 1.2004,0.35108 2.30752,0.33676 3.34881,-0.324 10.34128,-6.56226 20.67389,-13.13825 31.00894,-19.71036 -0.0896,-0.13544 -0.17917,-0.27087 -0.26874,-0.40634 -3.66674,1.03351 -7.33346,2.06701 -11.77355,3.34063 z"/>
    <path d="m 38.917061,164.99511 c 3.35773,1.0011 4.6435,3.13892 4.66077,6.10666 0.0397,6.81873 0.18863,13.62598 0.95547,20.41474 0.3226,2.85614 -0.11737,5.40957 -3.85824,5.6784 -3.49805,0.25131 -6.89182,0.29639 -7.81171,-4.12698 -1.67636,-8.06085 -0.87683,-16.24842 -0.80246,-24.36487 0.0328,-3.57822 3.48386,-3.89832 6.85617,-3.70795 z"/>
  </g>
</svg>
